<?xml version="1.0" standalone="no"?><!DOCTYPE svg PUBLIC "-//W3C//DTD SVG 1.1//EN" "http://www.w3.org/Graphics/SVG/1.1/DTD/svg11.dtd"><svg t="1780635941030" class="icon" viewBox="0 0 1042 1024" version="1.1" xmlns="http://www.w3.org/2000/svg" p-id="23872" xmlns:xlink="http://www.w3.org/1999/xlink" width="130.25" height="128"><path d="M932.1984 61.0816H378.5216a45.2608 45.2608 0 0 0-45.2608 45.2608V157.696l312.1152 96.6144 332.0832-96.6144V106.3424a45.1584 45.1584 0 0 0-45.2608-45.2608z" fill="#0364B8" p-id="23873"></path><path d="M1030.5536 557.2608c4.7616-14.848 8.4992-29.952 11.3152-45.2608a21.2992 21.2992 0 0 0-10.752-18.5344l-0.4096-0.256-0.1536-0.0512-349.0304-198.8608a48.5888 48.5888 0 0 0-52.3264 0L280.1152 493.1072l-0.1024 0.1024-0.4096 0.2048a21.7088 21.7088 0 0 0-10.752 18.5344c2.816 15.36 6.5536 30.464 11.264 45.2608l370.176 270.6944 380.2624-270.6944z" fill="#0A2767" p-id="23874"></path><path d="M784.2304 157.696h-225.4848l-65.024 96.6656 65.024 96.6144 225.4848 193.2288h193.2288V350.976z" fill="#28A8EA" p-id="23875"></path><path d="M333.312 157.696h225.4336v193.28H333.312z" fill="#0078D4" p-id="23876"></path><path d="M784.1792 157.696h193.2288v193.28h-193.2288z" fill="#50D9FF" p-id="23877"></path><path d="M784.1792 544.256l-225.4336-193.28H333.312v193.2288l225.4848 193.28 348.8768 56.9344z" fill="#0364B8" p-id="23878"></path><path d="M558.7456 350.976h225.4336v193.2288h-225.4336z" fill="#0078D4" p-id="23879"></path><path d="M333.312 544.256h225.4336v193.2288H333.312z" fill="#064A8C" p-id="23880"></path><path d="M784.1792 544.256h193.2288v193.2288h-193.2288z" fill="#0078D4" p-id="23881"></path><path d="M661.504 808.9088l-379.8528-276.992 15.9744-28.0064 351.3344 200.0384a16.896 16.896 0 0 0 13.5168-0.3584l352.1536-200.704 15.9744 28.0064-369.1008 278.016z" fill="#0A2767" opacity=".5" p-id="23882"></path><path d="M1031.168 530.5856l-0.512 0.256-0.1024 0.0512-349.0304 198.8608a48.384 48.384 0 0 1-47.0528 2.9696l121.5488 162.9696 265.8816 57.856v0.1536a48.7936 48.7936 0 0 0 14.6944-17.152 48.7936 48.7936 0 0 0 5.2736-21.9136V512a21.504 21.504 0 0 1-10.752 18.5856z" fill="#1490DF" p-id="23883"></path><path d="M1041.92 914.5856V890.88l-321.536-183.1936-38.8608 22.1184a48.384 48.384 0 0 1-47.0528 2.9696l121.5488 162.9696 265.8816 57.856v0.1536a48.7936 48.7936 0 0 0 19.968-39.1168z" fill="#000000" opacity=".05" p-id="23884"></path><path d="M1040.2304 926.976l-352.4608-200.7552-6.2464 3.5328a48.384 48.384 0 0 1-47.0528 2.9696l121.5488 163.0208 265.8816 57.856v0.1024a48.384 48.384 0 0 0 18.3296-26.7264z" fill="#000000" opacity=".1" p-id="23885"></path><path d="M280.1152 530.9952v-0.3072h-0.3072l-0.9728-0.6144a21.3504 21.3504 0 0 1-7.3728-7.7312 21.4016 21.4016 0 0 1-2.56-10.3424v402.6368a47.8208 47.8208 0 0 0 14.08 34.1504 48.7424 48.7424 0 0 0 34.2016 14.1312h676.352a48.4864 48.4864 0 0 0 17.7152-3.584 33.4336 33.4336 0 0 0 9.3184-4.8128c0.6656-0.3072 1.024-0.3072 1.3312-0.9216L280.1152 530.944z" fill="#28A8EA" p-id="23886"></path><path d="M590.9504 791.1424V265.0624a43.008 43.008 0 0 0-42.9568-42.9056H334.2336v240.128l-54.1184 30.8736-0.1536 0.0512-0.3584 0.2048a21.504 21.504 0 0 0-10.752 18.5856v322.0992h279.1424a43.008 43.008 0 0 0 43.008-42.9568z" fill="#000000" opacity=".1" p-id="23887"></path><path d="M558.7456 823.3984V297.3184a43.2128 43.2128 0 0 0-42.9568-42.9568H334.2336v207.9232l-54.1184 30.8736-0.1536 0.0512-0.3584 0.256a21.504 21.504 0 0 0-10.752 18.5856v354.304h246.9376a43.008 43.008 0 0 0 43.008-43.008z" fill="#000000" opacity=".2" p-id="23888"></path><path d="M558.7456 758.9376V297.3184a43.2128 43.2128 0 0 0-42.9568-42.9568H334.2336v207.9232l-54.1184 30.8736-0.1536 0.0512-0.3584 0.256a21.504 21.504 0 0 0-10.752 18.5344v289.8944h246.9376a43.008 43.008 0 0 0 43.008-42.9568z" fill="#000000" opacity=".2" p-id="23889"></path><path d="M526.5408 758.9376V297.3184a43.2128 43.2128 0 0 0-42.9568-42.9568H334.2336v207.9232l-54.1184 30.8736-0.1536 0.0512-0.3584 0.256a21.504 21.504 0 0 0-10.752 18.5344v289.8944h214.7328a43.008 43.008 0 0 0 43.008-42.9568z" fill="#000000" opacity=".2" p-id="23890"></path><path d="M54.1184 254.3616h429.4656a42.8544 42.8544 0 0 1 43.008 42.9568v429.4144a42.8032 42.8032 0 0 1-43.008 42.9568H54.1184a42.8544 42.8544 0 0 1-42.9056-42.9568V297.3184a42.8032 42.8032 0 0 1 42.9056-42.9568z" fill="#0078D4" p-id="23891"></path><path d="M135.7824 430.4384a134.4512 134.4512 0 0 1 52.8384-58.368 160.0512 160.0512 0 0 1 84.0704-21.0944 148.6336 148.6336 0 0 1 77.7216 19.968 133.12 133.12 0 0 1 51.456 55.808c12.4416 25.6 18.5856 53.76 18.0736 82.1248a190.72 190.72 0 0 1-18.5856 85.8624c-11.6224 24.064-30.0544 44.1344-52.992 57.8048a154.624 154.624 0 0 1-80.6912 20.48 152.064 152.064 0 0 1-79.4624-20.1728 135.3216 135.3216 0 0 1-52.1216-55.9104 176.128 176.128 0 0 1-18.2784-81.152 194.816 194.816 0 0 1 17.9712-85.3504z m56.32 137.1648c6.144 15.36 16.384 28.672 29.7472 38.4512 13.6192 9.5232 29.9008 14.4384 46.4896 14.0288 17.664 0.6656 35.072-4.4032 49.664-14.4896 13.1584-9.728 23.1936-23.1424 28.8256-38.5536 6.3488-17.152 9.472-35.328 9.216-53.6064 0.2048-18.432-2.7136-36.864-8.704-54.272a85.6576 85.6576 0 0 0-27.8528-39.936 76.9536 76.9536 0 0 0-49.152-15.2576 80.3328 80.3328 0 0 0-47.616 14.1312c-13.6192 9.728-24.1664 23.1936-30.4128 38.7584a153.7024 153.7024 0 0 0-0.2048 110.7968v-0.0512z" fill="#FFFFFF" p-id="23892"></path></svg>