<?xml version="1.0" standalone="no"?><!DOCTYPE svg PUBLIC "-//W3C//DTD SVG 1.1//EN" "http://www.w3.org/Graphics/SVG/1.1/DTD/svg11.dtd"><svg t="1780635834194" class="icon" viewBox="0 0 1024 1024" version="1.1" xmlns="http://www.w3.org/2000/svg" p-id="14197" xmlns:xlink="http://www.w3.org/1999/xlink" width="128" height="128"><path d="M211.101867 363.776c-14.933333 66.56-7.466667 133.12 7.466666 192.256 14.933333 51.754667-7.466667 103.509333-52.309333 133.077333-67.285333 36.949333-149.461333-14.805333-156.970667-81.322666C-57.954133 260.266667 255.944533-57.642667 614.728533 8.874667c-209.28 22.186667-366.250667 162.688-403.626666 354.901333z" fill="#FFDC04" p-id="14198"></path><path d="M532.4672 844.373333c59.818667-22.186667 119.594667-59.136 164.437333-103.509333 37.376-36.992 97.152-44.373333 141.994667-14.805333 67.285333 36.992 67.285333 133.12 7.509333 177.493333-269.098667 229.162667-702.549333 118.272-822.186666-221.866667 112.128 162.688 321.408 221.866667 508.245333 162.688z" fill="#E03A22" p-id="14199"></path><path d="M794.056533 326.826667a425.173333 425.173333 0 0 0-171.861333-88.746667c-52.352-14.762667-89.728-59.136-89.728-110.933333 0-73.898667 82.218667-125.653333 149.504-96.085334 336.341333 118.314667 455.893333 539.733333 216.746667 813.312 89.685333-177.493333 37.376-391.850667-104.661334-517.546666z" fill="#27AA3A" p-id="14200"></path><path d="M652.104533 489.472c0-14.805333 0-29.568-7.509333-36.949333 0-7.424 0-7.424-7.466667-14.805334 0-73.941333-44.842667-133.12-127.061333-133.12-82.218667 0-127.061333 59.178667-127.061333 133.12 0 7.381333-7.466667 7.381333-7.466667 14.805334-7.466667 14.762667-7.466667 22.186667-7.466667 29.568v7.381333c-14.933333 7.381333-29.909333 29.568-37.376 51.754667-14.933333 36.949333-14.933333 73.941333-7.466666 73.941333 7.466667 7.381333 22.4-7.381333 37.333333-22.186667 0 22.186667 14.933333 44.373333 29.909333 59.136-14.933333 0-29.866667 14.805333-29.866666 29.568 0 22.186667 29.866667 36.992 74.709333 36.992 37.376 0 67.285333-14.805333 74.752-29.568h7.466667c7.466667 14.762667 37.376 29.568 74.752 29.568s74.752-14.805333 74.752-36.992c0-14.762667-14.933333-22.186667-29.909334-29.568 14.933333-14.762667 29.866667-29.568 37.376-51.754666 14.933333 22.186667 29.866667 29.568 37.376 22.186666 14.933333-7.381333 7.466667-36.949333-7.509333-73.941333-22.4-36.949333-37.333333-51.754667-52.309333-59.136z" fill="#038BC5" p-id="14201"></path></svg>